<?xml version="1.0" standalone="no"?>
<!DOCTYPE svg PUBLIC "-//W3C//DTD SVG 20010904//EN"
 "http://www.w3.org/TR/2001/REC-SVG-20010904/DTD/svg10.dtd">
<svg version="1.0" xmlns="http://www.w3.org/2000/svg"
 width="681.000000pt" height="681.000000pt" viewBox="0 0 681.000000 681.000000"
 preserveAspectRatio="xMidYMid meet">
<metadata>
Created by potrace 1.14, written by Peter Selinger 2001-2017
</metadata>
<g transform="translate(0.000000,681.000000) scale(0.100000,-0.100000)"
fill="#000000" stroke="none">
<path d="M4234 6802 c14 -22 -43 -62 -149 -105 -181 -74 -414 -191 -573 -288
-40 -24 -82 -49 -92 -55 -48 -27 -225 -151 -323 -228 -153 -118 -318 -272
-422 -391 -43 -49 -167 -219 -209 -286 -64 -102 -164 -296 -211 -409 -14 -36
-32 -78 -40 -95 -24 -56 -85 -237 -121 -362 -35 -124 -41 -146 -50 -193 -2
-14 -7 -36 -10 -50 -3 -14 -8 -34 -10 -45 -2 -11 -6 -31 -9 -45 -15 -77 -32
-182 -41 -262 -3 -29 -7 -64 -10 -78 -25 -160 -25 -779 1 -965 2 -16 9 -70 15
-120 14 -107 17 -132 24 -165 3 -13 8 -42 11 -65 40 -288 209 -720 386 -984
71 -106 105 -148 190 -236 l29 -31 -69 -274 c-38 -151 -72 -291 -76 -310 -3
-19 -8 -44 -10 -55 -46 -238 -52 -425 -16 -494 25 -46 75 -60 133 -36 24 9 51
59 75 136 19 59 26 85 38 147 2 12 20 89 41 170 20 81 38 158 40 172 3 14 9
39 14 55 5 17 21 84 35 150 15 66 28 127 30 135 2 8 11 48 20 89 8 41 21 81
28 89 44 53 201 143 378 215 220 91 286 129 459 265 114 89 359 334 454 452
58 74 196 272 234 338 37 66 136 272 180 377 70 167 177 493 196 600 2 11 11
54 19 95 17 82 23 118 42 253 26 192 26 608 0 842 -8 73 -17 140 -20 165 -4
26 -5 32 -25 160 -6 41 -18 109 -26 150 -7 41 -16 86 -18 100 -2 14 -18 90
-36 170 -17 80 -33 154 -35 166 -4 16 -39 154 -59 229 -70 263 -201 583 -320
780 -20 33 -36 67 -36 76 0 8 -14 26 -31 38 -18 13 -29 19 -25 13z"/>
</g>
</svg>
